<svg width="26" height="32" viewBox="0 0 26 32" fill="none" xmlns="http://www.w3.org/2000/svg">
<path d="M13.1882 0.636902L0.618477 6.22344V14.6032C0.618477 22.3546 5.98155 29.6031 13.1882 31.3629C20.3948 29.6031 25.7579 22.3546 25.7579 14.6032V6.22344L13.1882 0.636902ZM13.1882 6.08377C14.0169 6.08377 14.8269 6.32951 15.516 6.7899C16.205 7.25029 16.742 7.90467 17.0591 8.67027C17.3763 9.43587 17.4592 10.2783 17.2976 11.0911C17.1359 11.9038 16.7369 12.6504 16.1509 13.2364C15.5649 13.8224 14.8184 14.2214 14.0056 14.3831C13.1928 14.5447 12.3504 14.4618 11.5848 14.1446C10.8192 13.8275 10.1648 13.2905 9.70441 12.6015C9.24401 11.9124 8.99828 11.1024 8.99828 10.2737C8.99828 9.16245 9.43972 8.09673 10.2255 7.31097C11.0112 6.52521 12.077 6.08377 13.1882 6.08377ZM13.1882 17.1172C15.9815 17.1172 21.568 18.6395 21.568 21.4188C20.6507 22.8017 19.4055 23.936 17.9433 24.7207C16.4812 25.5054 14.8476 25.916 13.1882 25.916C11.5288 25.916 9.89517 25.5054 8.43302 24.7207C6.97088 23.936 5.72565 22.8017 4.80838 21.4188C4.80838 18.6395 10.3949 17.1172 13.1882 17.1172Z" fill="white"/>
</svg>
