<svg id="Layer_1" data-name="Layer 1" xmlns="http://www.w3.org/2000/svg" viewBox="0 0 746.74 224"><path d="M385.67,428h-214a5,5,0,0,0-5,5V647a5,5,0,0,0,5,5h214a5,5,0,0,0,5-5V433a5,5,0,0,0-5-5ZM316,572.35a5,5,0,0,1-5,5H246.3a5,5,0,0,1-5-5V507.64a5,5,0,0,1,5-5H311a5,5,0,0,1,5,5Z" transform="translate(-166.65 -428)"/><path d="M833.78,502.67H769.07a5,5,0,0,0-5,5v64.71a5,5,0,0,0,5,5h64.71a5,5,0,0,0,5-5V507.65A5,5,0,0,0,833.78,502.67Z" transform="translate(-166.65 -428)"/><path d="M759.09,428H694.38a5,5,0,0,0-5,5v64.71a5,5,0,0,0,5,5h64.71a5,5,0,0,0,5-5V433A5,5,0,0,0,759.09,428Z" transform="translate(-166.65 -428)"/><path d="M908.42,428H843.71a5,5,0,0,0-5,5v64.71a5,5,0,0,0,5,5h64.71a5,5,0,0,0,5-5V433A5,5,0,0,0,908.42,428Z" transform="translate(-166.65 -428)"/><path d="M759.09,577.33H694.38a5,5,0,0,0-5,5V647a5,5,0,0,0,5,5h64.71a5,5,0,0,0,5-5V582.31A5,5,0,0,0,759.09,577.33Z" transform="translate(-166.65 -428)"/><path d="M908.42,577.33H843.71a5,5,0,0,0-5,5V647a5,5,0,0,0,5,5h64.71a5,5,0,0,0,5-5V582.31A5,5,0,0,0,908.42,577.33Z" transform="translate(-166.65 -428)"/><path d="M647,428H582.29a5,5,0,0,0-5,5v64.71a5,5,0,0,0,5,5H647a5,5,0,0,0,5-5V433A5,5,0,0,0,647,428Z" transform="translate(-166.65 -428)"/><path d="M647,577.33H582.29a5,5,0,0,0-5,5V647a5,5,0,0,0,5,5H647a5,5,0,0,0,5-5V582.31A5,5,0,0,0,647,577.33Z" transform="translate(-166.65 -428)"/><path d="M577.31,507.59a5,5,0,0,0-5-5H502.64V433a5,5,0,0,0-5-5H433a5,5,0,0,0-5,5V646.91a5,5,0,0,0,5,5h64.71a5,5,0,0,0,5-5V577.27h69.69a5,5,0,0,0,5-5Z" transform="translate(-166.65 -428)"/></svg>