<svg width="23" height="31" viewBox="0 0 23 31" fill="none" xmlns="http://www.w3.org/2000/svg">
<g clip-path="url(#clip0_1459_596)">
<path d="M17.4391 16.0953C17.4297 14.375 18.2078 13.0766 19.7828 12.1203C18.9016 10.8594 17.5703 10.1656 15.8125 10.0297C14.1484 9.89844 12.3297 11 11.6641 11C10.9609 11 9.34844 10.0766 8.08281 10.0766C5.46719 10.1188 2.6875 12.1625 2.6875 16.3203C2.6875 17.5484 2.9125 18.8172 3.3625 20.1266C3.9625 21.8469 6.12812 26.0656 8.3875 25.9953C9.56875 25.9672 10.4031 25.1563 11.9406 25.1563C13.4312 25.1563 14.2047 25.9953 15.5219 25.9953C17.8 25.9625 19.7594 22.1281 20.3312 20.4031C17.275 18.9641 17.4391 16.1844 17.4391 16.0953ZM14.7859 8.39844C16.0656 6.87969 15.9484 5.49688 15.9109 5C14.7812 5.06563 13.4734 5.76875 12.7281 6.63594C11.9078 7.56406 11.425 8.7125 11.5281 10.0063C12.7516 10.1 13.8672 9.47188 14.7859 8.39844Z" fill="#0177A1"/>
</g>
<defs>
<clipPath id="clip0_1459_596">
<path d="M2.5 3.5H20.5V27.5H2.5V3.5Z" fill="white"/>
</clipPath>
</defs>
</svg>
