<svg width="35" height="35" viewBox="0 0 35 35" fill="none" xmlns="http://www.w3.org/2000/svg">
<path d="M17.665 2.44843C21.6569 2.44843 25.4854 4.03422 28.3081 6.85695C31.1308 9.67968 32.7166 13.5081 32.7166 17.5001C32.7166 21.492 31.1308 25.3205 28.3081 28.1432C25.4854 30.9659 21.6569 32.5517 17.665 32.5517C13.673 32.5517 9.8446 30.9659 7.02187 28.1432C4.19914 25.3205 2.61335 21.492 2.61335 17.5001C2.61335 13.5081 4.19914 9.67968 7.02187 6.85695C9.8446 4.03422 13.673 2.44843 17.665 2.44843ZM19.9226 11.6895C21.0406 11.6895 21.948 10.9133 21.948 9.763C21.948 8.61271 21.0385 7.83653 19.9226 7.83653C18.8045 7.83653 17.9015 8.61271 17.9015 9.763C17.9015 10.9133 18.8045 11.6895 19.9226 11.6895ZM20.316 23.788C20.316 23.5579 20.3956 22.9602 20.3504 22.6205L18.5831 24.6545C18.2176 25.0393 17.7596 25.3059 17.5446 25.235C17.447 25.1991 17.3655 25.1296 17.3147 25.0389C17.2638 24.9482 17.247 24.8424 17.2672 24.7405L20.2128 15.4349C20.4536 14.2545 19.7914 13.1773 18.3874 13.0397C16.906 13.0397 14.7258 14.5426 13.3992 16.4498C13.3992 16.6777 13.3562 17.2453 13.4014 17.585L15.1666 15.5489C15.5321 15.1683 15.9578 14.8995 16.1728 14.9726C16.2788 15.0107 16.3656 15.0887 16.4146 15.19C16.4637 15.2913 16.471 15.4078 16.4351 15.5145L13.5153 24.7749C13.1778 25.8585 13.8163 26.9207 15.3644 27.1615C17.6435 27.1615 18.9894 25.6951 20.3182 23.788H20.316Z" fill="white"/>
</svg>
