<svg width="24" height="24" viewBox="0 0 24 24" fill="none" xmlns="http://www.w3.org/2000/svg">
<path d="M24 24H0V0H24V24Z" stroke="#E5E7EB"/>
<path d="M24 24H0V0H24V24Z" stroke="#E5E7EB"/>
<path d="M15.248 10.9828L4.90273 0.609375L18.0652 8.16562L15.248 10.9828ZM2.20273 0C1.59336 0.31875 1.18555 0.9 1.18555 1.65469V22.3406C1.18555 23.0953 1.59336 23.6766 2.20273 23.9953L14.2309 11.9953L2.20273 0ZM22.134 10.575L19.373 8.97656L16.2934 12L19.373 15.0234L22.1902 13.425C23.034 12.7547 23.034 11.2453 22.134 10.575ZM4.90273 23.3906L18.0652 15.8344L15.248 13.0172L4.90273 23.3906Z" fill="#01C3FD"/>
</svg>
