<svg width="30" height="27" viewBox="0 0 30 27" fill="none" xmlns="http://www.w3.org/2000/svg">
<path d="M24.7077 17.4562C25.2094 16.2378 25.4818 14.9334 25.4818 13.5C25.4818 12.468 25.3241 11.4789 25.0517 10.5616C24.12 10.7766 23.1453 10.8912 22.1276 10.8912C20.0434 10.8935 17.9893 10.3946 16.1383 9.43667C14.2873 8.47874 12.6937 7.08984 11.4919 5.38704C10.2075 8.49855 7.78189 11.0011 4.71198 12.382C4.65464 12.7403 4.65464 13.1273 4.65464 13.5C4.65464 14.8685 4.92418 16.2235 5.44787 17.4878C5.97156 18.7521 6.73915 19.9009 7.7068 20.8686C9.66107 22.8228 12.3116 23.9207 15.0754 23.9207C16.5804 23.9207 18.0281 23.5911 19.3325 23.0034C20.1496 24.5658 20.5222 25.3398 20.4936 25.3398C18.1428 26.1282 16.3224 26.5152 15.0754 26.5152C11.6066 26.5152 8.29545 25.1535 5.85869 22.7024C4.3752 21.2259 3.27324 19.4106 2.6479 17.4132H0.741493V10.8912H2.30389C2.77725 8.58709 3.86555 6.45406 5.45331 4.71849C7.04107 2.98292 9.06906 1.70955 11.3221 1.03349C13.5751 0.357436 15.9691 0.303916 18.2501 0.878611C20.5311 1.45331 22.614 2.63478 24.2777 4.29766C26.0835 6.09739 27.3155 8.39182 27.8182 10.8912H29.4092V17.4132H29.3232L24.2204 22.1003L16.6234 21.2403V18.8465H23.5467L24.7077 17.4562ZM11.1622 13.1703C11.5922 13.1703 12.0079 13.3423 12.3089 13.6577C12.6114 13.9627 12.7812 14.3748 12.7812 14.8044C12.7812 15.234 12.6114 15.6461 12.3089 15.9511C12.0079 16.2521 11.5922 16.4241 11.1622 16.4241C10.2592 16.4241 9.52816 15.7074 9.52816 14.8044C9.52816 13.9014 10.2592 13.1703 11.1622 13.1703ZM18.9742 13.1703C19.8772 13.1703 20.5939 13.9014 20.5939 14.8044C20.5939 15.7074 19.8772 16.4241 18.9742 16.4241C18.0711 16.4241 17.3401 15.7074 17.3401 14.8044C17.3401 14.371 17.5123 13.9554 17.8187 13.6489C18.1252 13.3425 18.5408 13.1703 18.9742 13.1703Z" fill="white"/>
</svg>
